# xmcd CD database file
#
# Track frame offsets:
#	150
#	39383
#	88210
#	111930
#	130712
#	147214
#	176787
#	202336
#	260851
#	295209
#
# Disc length: 4240 seconds
#
# Revision: 0
# Processed by: cddbd v1.5.1PL0 Copyright (c) Steve Scherf et al.
# Submitted via: CDex 1.51
#
DISCID=a1108e0a
DTITLE=Eric Clapton - Live in Palau Sant Jordi,Barcelona,Spain.May4,1995 CD2
DYEAR=1995
DGENRE=Blues
TTITLE0=Every Day I Have The Blues
TTITLE1=Double Trouble
TTITLE2=Before You Accuse Me
TTITLE3=Someday After A While
TTITLE4=Tore Down
TTITLE5=Have You Ever Loved A Women
TTITLE6=Crossroads
TTITLE7=Five Long Years
TTITLE8=Sweet Home Chicago
TTITLE9=Ain`t Nobodys Buziness
EXTD=YEAR: 1995
EXTT0=
EXTT1=
EXTT2=
EXTT3=
EXTT4=
EXTT5=
EXTT6=
EXTT7=
EXTT8=
EXTT9=
PLAYORDER=
